#N canvas 20 77 2465 1194 10;
#N canvas 1252 262 891 614 oscReceive 0;
#X obj 55 184 netreceive -u -b;
#X msg 78 143 listen 0;
#X text 152 143 stop listening;
#X text 64 58 packets from network;
#X text 173 177 UDP packets \, binary output, f 13;
#X obj 45 314 print;
#X obj 45 272 oscparse;
#X text 150 114 listen on port 8000;
#X obj 177 269 oscparse;
#X obj 177 293 list trim;
#X floatatom 140 380 5 0 0 0 - - -;
#X text 241 267 Parse the OSC message;
#X obj 177 319 route unity;
#X obj 139 357 route trigger;
#X obj 140 407 s osctrig;
#X msg 66 115 listen 8000;
#X obj 66 84 loadbang;
#X floatatom 244 382 5 0 0 0 - - -;
#X obj 243 359 route tempo;
#X obj 244 409 s osctempo;
#X floatatom 339 382 5 0 0 0 - - -;
#X obj 338 359 route playseq;
#X obj 339 409 s oscplayseq;
#X floatatom 437 382 5 0 0 0 - - -;
#X obj 436 359 route colwall;
#X obj 437 409 s oscwall;
#X connect 0 0 6 0;
#X connect 0 0 8 0;
#X connect 1 0 0 0;
#X connect 6 0 5 0;
#X connect 8 0 9 0;
#X connect 9 0 12 0;
#X connect 10 0 14 0;
#X connect 12 0 13 0;
#X connect 12 0 18 0;
#X connect 12 0 21 0;
#X connect 12 0 24 0;
#X connect 13 0 10 0;
#X connect 15 0 0 0;
#X connect 16 0 15 0;
#X connect 17 0 19 0;
#X connect 18 0 17 0;
#X connect 20 0 22 0;
#X connect 21 0 20 0;
#X connect 23 0 25 0;
#X connect 24 0 23 0;
#X restore 47 142 pd oscReceive;
#X obj 47 36 tgl 15 0 empty empty empty 17 7 0 10 -262144 -1 -1 1 1
;
#X msg 47 61 \; pd dsp \$1;
#X obj 455 225 r osctrig;
#N canvas 727 97 450 300 oscSend 0;
#X msg 158 207 disconnect;
#X obj 61 253 netsend -u -b;
#X obj 59 55 list prepend send;
#X obj 59 80 list trim;
#X msg 150 175 connect 127.0.0.1 8001;
#X obj 59 29 r oscOut;
#X text 301 163 send to port 8001;
#X msg 147 148 connect localhost 8001;
#X obj 147 108 loadbang;
#X connect 0 0 1 0;
#X connect 2 0 3 0;
#X connect 3 0 1 0;
#X connect 4 0 1 0;
#X connect 5 0 2 0;
#X connect 7 0 1 0;
#X connect 8 0 7 0;
#X restore 47 118 pd oscSend;
#X text 451 198 Tirgger when picking up rotating cube...;
#X text 1039 183 Trigger noise burst when running into a wall;
#X text 1634 187 Sequence playback: tempo increases as more cubes are
collected.;
#X obj 1756 901 *~;
#X obj 1747 946 dac~;
#X obj 1704 353 tgl 15 0 empty empty empty 17 7 0 10 -262144 -1 -1
0 1;
#X obj 1700 444 f;
#X obj 1943 754 vline~;
#X obj 1750 445 + 1;
#X floatatom 1693 299 5 0 0 0 - - -;
#X obj 1688 245 r osctempo;
#X obj 1567 256 r oscplayseq;
#X msg 1959 666 0.5 10 \, 0 10 50;
#X obj 503 964 dac~;
#X obj 455 343 bng 15 250 50 0 empty empty empty 17 7 0 10 -262144
-1 -1;
#X text 1758 342 The button to press;
#X obj 548 681 line;
#X obj 445 503 + 1;
#X obj 340 368 tgl 15 0 empty empty empty 17 7 0 10 -262144 -1 -1 0
1;
#X obj 536 389 select 1;
#X obj 487 502 - 1;
#X obj 399 505 f 0;
#X obj 290 451 metro 151;
#X msg 660 615 0 200;
#X obj 1822 727 mtof;
#X obj 1660 781 osc~;
#X obj 1660 725 mtof;
#X obj 1714 830 *~;
#X msg 486 608 550 150;
#X obj 540 748 osc~;
#X msg 1580 592 68;
#X obj 1827 783 osc~;
#X obj 1709 473 mod 6;
#X obj 1671 524 select 0 1 2 3 4 5;
#X msg 1636 597 68;
#X msg 1685 591 75;
#X msg 1778 595 70;
#X msg 1732 595 73;
#X msg 1831 597 70;
#X obj 2183 608 osc~;
#X obj 2187 552 mtof;
#X obj 2161 856 dac~;
#X floatatom 2193 514 5 0 0 0 - - -;
#X obj 2187 664 *~;
#X obj 2246 568 mtof;
#X obj 2238 605 osc~;
#X obj 2185 807 *~;
#X obj 2201 787 vline~;
#X msg 2148 416 68;
#X obj 2276 481 loadbang;
#X msg 2257 524 -10;
#X msg 2201 761 0.1 20 \, 0 20 200;
#X obj 2172 374 select 0 1 2 3 4 5;
#X msg 2183 416 68;
#X msg 2218 417 75;
#X msg 2249 417 73;
#X msg 2287 419 70;
#X msg 2326 418 70;
#X obj 1712 396 metro 500;
#X obj 504 886 *~ 0.3;
#X obj 1209 592 dac~;
#X obj 1254 444 vline~;
#X obj 1247 359 bng 15 250 50 0 empty empty empty 17 7 0 10 -262144
-1 -1;
#X obj 1304 528 env~;
#X obj 1334 575 - 100;
#X obj 985 563 delwrite~ delaytime 1000;
#X obj 1247 318 r oscwall;
#X obj 1206 492 *~;
#X obj 1029 380 osc~ 220;
#X msg 1247 392 0.5 30 \, 0 500 60;
#X text 1976 716 volue control;
#X text 2316 768 volue control;
#X text 1323 411 volue control;
#X text 572 882 volue control;
#X text 1302 356 The button to press;
#X text 501 348 The button to press;
#X obj 1392 632 vu 15 120 empty empty -1 -8 0 10 -66577 -1 1 0;
#X connect 1 0 2 0;
#X connect 3 0 19 0;
#X connect 8 0 9 0;
#X connect 8 0 9 1;
#X connect 10 0 63 0;
#X connect 11 0 13 0;
#X connect 11 0 37 0;
#X connect 12 0 8 1;
#X connect 13 0 11 1;
#X connect 14 0 10 0;
#X connect 14 0 63 1;
#X connect 15 0 14 0;
#X connect 16 0 10 0;
#X connect 17 0 12 0;
#X connect 19 0 23 0;
#X connect 19 0 33 0;
#X connect 21 0 34 0;
#X connect 22 0 26 1;
#X connect 23 0 27 0;
#X connect 24 0 23 0;
#X connect 24 0 25 0;
#X connect 24 0 28 0;
#X connect 25 0 26 1;
#X connect 26 0 22 0;
#X connect 26 0 24 0;
#X connect 27 0 26 0;
#X connect 28 0 21 0;
#X connect 29 0 36 0;
#X connect 30 0 32 0;
#X connect 31 0 30 0;
#X connect 32 0 8 0;
#X connect 33 0 21 0;
#X connect 34 0 64 0;
#X connect 35 0 31 0;
#X connect 35 0 29 0;
#X connect 36 0 32 1;
#X connect 37 0 38 0;
#X connect 37 0 57 0;
#X connect 38 0 35 0;
#X connect 38 1 39 0;
#X connect 38 2 40 0;
#X connect 38 3 42 0;
#X connect 38 4 41 0;
#X connect 38 5 43 0;
#X connect 39 0 29 0;
#X connect 39 0 31 0;
#X connect 40 0 31 0;
#X connect 40 0 29 0;
#X connect 41 0 31 0;
#X connect 41 0 29 0;
#X connect 42 0 29 0;
#X connect 42 0 31 0;
#X connect 43 0 29 0;
#X connect 43 0 31 0;
#X connect 44 0 48 0;
#X connect 45 0 44 0;
#X connect 47 0 45 0;
#X connect 48 0 51 0;
#X connect 49 0 50 0;
#X connect 50 0 48 1;
#X connect 51 0 46 0;
#X connect 51 0 46 1;
#X connect 52 0 51 1;
#X connect 53 0 47 0;
#X connect 54 0 55 0;
#X connect 55 0 49 0;
#X connect 56 0 52 0;
#X connect 57 0 53 0;
#X connect 57 1 58 0;
#X connect 57 2 59 0;
#X connect 57 3 60 0;
#X connect 57 4 61 0;
#X connect 57 5 62 0;
#X connect 58 0 47 0;
#X connect 59 0 47 0;
#X connect 60 0 47 0;
#X connect 61 0 47 0;
#X connect 62 0 47 0;
#X connect 63 0 17 0;
#X connect 63 0 11 0;
#X connect 63 0 56 0;
#X connect 64 0 18 0;
#X connect 64 0 18 1;
#X connect 66 0 72 1;
#X connect 67 0 74 0;
#X connect 68 0 69 0;
#X connect 69 0 81 0;
#X connect 71 0 67 0;
#X connect 72 0 68 0;
#X connect 72 0 70 0;
#X connect 72 0 65 0;
#X connect 72 0 65 1;
#X connect 73 0 72 0;
#X connect 74 0 66 0;
