#N canvas 74 -9 1837 1026 12;
#X obj 1480 877 dac~;
#X obj 1466 818 catch~ out;
#X obj 98 524 phasor~;
#X obj 99 550 lop~ 6000;
#X obj 147 586 *~;
#X obj 94 472 mtof;
#X obj 160 496 line 0 3;
#X floatatom 167 528 5 0 0 0 - - -;
#X msg 156 435 0.1 300;
#X msg 220 458 0 700;
#X obj 130 614 throw~ out;
#X floatatom 242 395 5 0 0 0 - - -;
#X obj 220 430 delay 500;
#X obj 227 594 vline~;
#X obj 516 646 phasor~;
#X obj 517 672 lop~ 6000;
#X obj 565 708 *~;
#X obj 578 618 line 0 3;
#X floatatom 585 650 5 0 0 0 - - -;
#X msg 574 557 0.1 300;
#X msg 638 580 0 700;
#X obj 548 736 throw~ out;
#X floatatom 660 517 5 0 0 0 - - -;
#X obj 638 552 delay 500;
#X obj 645 716 vline~;
#X obj 977 667 phasor~;
#X obj 978 693 lop~ 6000;
#X obj 1026 729 *~;
#X obj 1039 639 line 0 3;
#X floatatom 1046 671 5 0 0 0 - - -;
#X msg 1035 578 0.1 300;
#X msg 1099 601 0 700;
#X obj 1009 757 throw~ out;
#X floatatom 1121 538 5 0 0 0 - - -;
#X obj 1099 573 delay 500;
#X obj 1106 737 vline~;
#X msg 309 515 0.35 30 \, 0 1000 100;
#X msg 723 636 0.35 30 \, 0 1000 100;
#X msg 1249 534 0.35 30 \, 0 1000 100;
#X obj 451 76 bng 15 250 50 0 empty empty empty 17 7 0 10 -262144 -1
-1;
#X obj 342 459 delay 150;
#X obj 706 397 delay 300;
#X obj 1219 459 delay 450;
#X obj 428 154 trigger bang bang bang bang;
#X obj 1317 680 phasor~;
#X obj 1318 706 lop~ 6000;
#X obj 1366 742 *~;
#X obj 1379 652 line 0 3;
#X floatatom 1386 684 5 0 0 0 - - -;
#X msg 1375 591 0.1 300;
#X msg 1439 614 0 700;
#X obj 1349 770 throw~ out;
#X floatatom 1461 551 5 0 0 0 - - -;
#X obj 1439 586 delay 500;
#X obj 1446 750 vline~;
#X msg 1589 547 0.35 30 \, 0 1000 100;
#X obj 1559 472 delay 600;
#X msg 92 409 60;
#X msg 98 499 261.6;
#X obj 503 578 mtof;
#X msg 504 535 55;
#X msg 507 605 195.9;
#X obj 986 613 mtof;
#X msg 990 640 164.8;
#X obj 1312 616 mtof;
#X msg 1313 573 48;
#X msg 1316 643 130.8;
#X msg 987 570 51;
#X connect 1 0 0 0;
#X connect 1 0 0 1;
#X connect 2 0 3 0;
#X connect 3 0 4 0;
#X connect 4 0 10 0;
#X connect 5 0 58 0;
#X connect 6 0 7 0;
#X connect 7 0 4 1;
#X connect 8 0 6 0;
#X connect 9 0 6 0;
#X connect 11 0 12 1;
#X connect 12 0 9 0;
#X connect 13 0 4 1;
#X connect 14 0 15 0;
#X connect 15 0 16 0;
#X connect 16 0 21 0;
#X connect 17 0 18 0;
#X connect 18 0 16 1;
#X connect 19 0 17 0;
#X connect 20 0 17 0;
#X connect 22 0 23 1;
#X connect 23 0 20 0;
#X connect 24 0 16 1;
#X connect 25 0 26 0;
#X connect 26 0 27 0;
#X connect 27 0 32 0;
#X connect 28 0 29 0;
#X connect 29 0 27 1;
#X connect 30 0 28 0;
#X connect 31 0 28 0;
#X connect 33 0 34 1;
#X connect 34 0 31 0;
#X connect 35 0 27 1;
#X connect 36 0 13 0;
#X connect 37 0 24 0;
#X connect 38 0 35 0;
#X connect 39 0 43 0;
#X connect 40 0 36 0;
#X connect 41 0 37 0;
#X connect 42 0 38 0;
#X connect 43 0 40 0;
#X connect 43 0 57 0;
#X connect 43 1 41 0;
#X connect 43 1 60 0;
#X connect 43 2 42 0;
#X connect 43 2 67 0;
#X connect 43 3 56 0;
#X connect 43 3 65 0;
#X connect 44 0 45 0;
#X connect 45 0 46 0;
#X connect 46 0 51 0;
#X connect 47 0 48 0;
#X connect 48 0 46 1;
#X connect 49 0 47 0;
#X connect 50 0 47 0;
#X connect 52 0 53 1;
#X connect 53 0 50 0;
#X connect 54 0 46 1;
#X connect 55 0 54 0;
#X connect 56 0 55 0;
#X connect 57 0 5 0;
#X connect 58 0 2 0;
#X connect 59 0 61 0;
#X connect 60 0 59 0;
#X connect 61 0 14 0;
#X connect 62 0 63 0;
#X connect 63 0 25 0;
#X connect 64 0 66 0;
#X connect 65 0 64 0;
#X connect 66 0 44 0;
#X connect 67 0 62 0;
