#N canvas 795 232 1070 774 12;
#X obj 659 602 dac~;
#X obj 629 413 osc~;
#X obj 629 446 *~;
#X obj 521 506 *~;
#X obj 496 435 osc~;
#X obj 629 343 vline~;
#X msg 496 391 9;
#X msg 710 354 3;
#X obj 639 92 bng 15 250 50 0 empty empty empty 17 7 0 10 -262144 -1
-1;
#X obj 809 256 delay 20;
#X msg 635 270 500 20;
#X msg 755 302 0 500;
#X obj 624 187 trigger bang bang bang;
#X obj 16 12 tgl 15 0 empty empty empty 17 7 0 10 -262144 -1 -1 0 1
;
#X msg 16 37 \; pd dsp \$1;
#X msg 770 524 0.1 20 \, 0 20 200;
#X obj 668 557 *~;
#X obj 775 574 vline~;
#X connect 1 0 2 0;
#X connect 2 0 3 1;
#X connect 3 0 16 0;
#X connect 4 0 3 0;
#X connect 5 0 1 0;
#X connect 6 0 4 0;
#X connect 7 0 2 1;
#X connect 8 0 12 0;
#X connect 8 0 6 0;
#X connect 8 0 7 0;
#X connect 9 0 11 0;
#X connect 10 0 5 0;
#X connect 11 0 5 0;
#X connect 12 0 10 0;
#X connect 12 1 15 0;
#X connect 12 2 9 0;
#X connect 13 0 14 0;
#X connect 15 0 17 0;
#X connect 16 0 0 0;
#X connect 16 0 0 1;
#X connect 17 0 16 1;
